{
  "accessors": [
    {
      "bufferView": 2,
      "componentType": 5126,
      "count": 86,
      "max": [
        6.011040210723877,
        9.223859786987305,
        -8.883569717407227
      ],
      "min": [
        -6.011040210723877,
        1.3659100532531738,
        -16.856719970703125
      ],
      "type": "VEC3"
    },
    {
      "bufferView": 2,
      "byteOffset": 1032,
      "componentType": 5126,
      "count": 86,
      "max": [
        0.9996833205223083,
        0.9954848289489746,
        0.7684751152992249
      ],
      "min": [
        -0.9996833205223083,
        -0.04892253130674362,
        -0.1937248408794403
      ],
      "type": "VEC3"
    },
    {
      "bufferView": 1,
      "componentType": 5126,
      "count": 86,
      "max": [
        0.9928699731826782,
        0.9982699751853943
      ],
      "min": [
        0.0071299998089671135,
        0.5826500058174133
      ],
      "type": "VEC2"
    },
    {
      "bufferView": 0,
      "componentType": 5125,
      "count": 288,
      "type": "SCALAR"
    },
    {
      "bufferView": 2,
      "byteOffset": 2064,
      "componentType": 5126,
      "count": 30,
      "max": [
        1.940600037574768,
        1.4446799755096436,
        9.640250205993652
      ],
      "min": [
        -1.940600037574768,
        0.60794997215271,
        -11.320229530334473
      ],
      "type": "VEC3"
    },
    {
      "bufferView": 2,
      "byteOffset": 2424,
      "componentType": 5126,
      "count": 30,
      "max": [
        0.9902090430259705,
        0.4262421727180481,
        0.15191666781902313
      ],
      "min": [
        -0.9902102947235107,
        0.034804683178663254,
        -0.1351751685142517
      ],
      "type": "VEC3"
    },
    {
      "bufferView": 1,
      "byteOffset": 688,
      "componentType": 5126,
      "count": 30,
      "max": [
        0.5542100071907043,
        0.5479999780654907
      ],
      "min": [
        0.15801000595092773,
        0.09276002645492554
      ],
      "type": "VEC2"
    },
    {
      "bufferView": 0,
      "byteOffset": 1152,
      "componentType": 5125,
      "count": 66,
      "type": "SCALAR"
    },
    {
      "bufferView": 2,
      "byteOffset": 2784,
      "componentType": 5126,
      "count": 24,
      "max": [
        2.5315399169921875,
        -0.7576799988746643,
        9.721224784851074
      ],
      "min": [
        -2.5315399169921875,
        -1.5374900102615356,
        0.008779999800026417
      ],
      "type": "VEC3"
    },
    {
      "bufferView": 2,
      "byteOffset": 3072,
      "componentType": 5126,
      "count": 24,
      "max": [
        0.4924195110797882,
        0.9945218563079834,
        1.0
      ],
      "min": [
        -0.49241903424263,
        0.0,
        -0.2618582546710968
      ],
      "type": "VEC3"
    },
    {
      "bufferView": 1,
      "byteOffset": 928,
      "componentType": 5126,
      "count": 24,
      "max": [
        0.9994999766349792,
        0.5
      ],
      "min": [
        0.0005000000237487257,
        0.02941000461578369
      ],
      "type": "VEC2"
    },
    {
      "bufferView": 0,
      "byteOffset": 1416,
      "componentType": 5125,
      "count": 30,
      "type": "SCALAR"
    },
    {
      "bufferView": 2,
      "byteOffset": 3360,
      "componentType": 5126,
      "count": 99,
      "max": [
        4.099289894104004,
        0.47585999965667725,
        9.504854202270508
      ],
      "min": [
        -4.099289894104004,
        -1.6567399501800537,
        -0.69336998462677
      ],
      "type": "VEC3"
    },
    {
      "bufferView": 2,
      "byteOffset": 4548,
      "componentType": 5126,
      "count": 99,
      "max": [
        1.0,
        0.0,
        0.5409154295921326
      ],
      "min": [
        -0.9974310398101807,
        -0.9804036617279053,
        -0.5342523455619812
      ],
      "type": "VEC3"
    },
    {
      "bufferView": 1,
      "byteOffset": 1120,
      "componentType": 5126,
      "count": 99,
      "max": [
        0.6100000143051147,
        0.9962999820709229
      ],
      "min": [
        0.20069999992847443,
        0.006919980049133301
      ],
      "type": "VEC2"
    },
    {
      "bufferView": 0,
      "byteOffset": 1536,
      "componentType": 5125,
      "count": 261,
      "type": "SCALAR"
    },
    {
      "bufferView": 2,
      "byteOffset": 5736,
      "componentType": 5126,
      "count": 42,
      "max": [
        2.273129940032959,
        -0.998520016670227,
        -0.007670000195503235
      ],
      "min": [
        -2.2736001014709473,
        -1.2587800025939941,
        -0.10672000050544739
      ],
      "type": "VEC3"
    },
    {
      "bufferView": 2,
      "byteOffset": 6240,
      "componentType": 5126,
      "count": 42,
      "max": [
        0.6056703329086304,
        0.6056696772575378,
        1.0
      ],
      "min": [
        -0.6056697964668274,
        -0.6056699752807617,
        -1.0
      ],
      "type": "VEC3"
    },
    {
      "bufferView": 1,
      "byteOffset": 1912,
      "componentType": 5126,
      "count": 42,
      "max": [
        0.01785000041127205,
        0.6658400297164917
      ],
      "min": [
        0.002460000105202198,
        0.6352599859237671
      ],
      "type": "VEC2"
    },
    {
      "bufferView": 0,
      "byteOffset": 2580,
      "componentType": 5125,
      "count": 84,
      "type": "SCALAR"
    },
    {
      "bufferView": 2,
      "byteOffset": 6744,
      "componentType": 5126,
      "count": 6,
      "max": [
        -0.02521701343357563,
        -1.3236050605773926,
        9.207173347473145
      ],
      "min": [
        -0.4067169725894928,
        -1.36348295211792,
        8.827763557434082
      ],
      "type": "VEC3"
    },
    {
      "bufferView": 2,
      "byteOffset": 6816,
      "componentType": 5126,
      "count": 6,
      "max": [
        0.0,
        0.9945218563079834,
        -0.1045292541384697
      ],
      "min": [
        0.0,
        0.9945218563079834,
        -0.10452960431575775
      ],
      "type": "VEC3"
    },
    {
      "bufferView": 1,
      "byteOffset": 2248,
      "componentType": 5126,
      "count": 6,
      "max": [
        0.9994999766349792,
        0.5
      ],
      "min": [
        0.0005000000237487257,
        0.02941000461578369
      ],
      "type": "VEC2"
    },
    {
      "bufferView": 0,
      "byteOffset": 2916,
      "componentType": 5125,
      "count": 6,
      "type": "SCALAR"
    },
    {
      "bufferView": 2,
      "byteOffset": 6888,
      "componentType": 5126,
      "count": 12,
      "max": [
        -0.030410995706915855,
        -0.7349503040313721,
        9.504854202270508
      ],
      "min": [
        -0.14644098281860352,
        -1.2581894397735596,
        8.696673393249512
      ],
      "type": "VEC3"
    },
    {
      "bufferView": 2,
      "byteOffset": 7032,
      "componentType": 5126,
      "count": 12,
      "max": [
        -0.9109545350074768,
        0.0,
        0.35339677333831787
      ],
      "min": [
        -1.0,
        -0.2127738744020462,
        -3.988706609447945e-08
      ],
      "type": "VEC3"
    },
    {
      "bufferView": 1,
      "byteOffset": 2296,
      "componentType": 5126,
      "count": 12,
      "max": [
        0.5090100169181824,
        0.9962999820709229
      ],
      "min": [
        0.4715299904346466,
        0.9914600253105164
      ],
      "type": "VEC2"
    },
    {
      "bufferView": 0,
      "byteOffset": 2940,
      "componentType": 5125,
      "count": 12,
      "type": "SCALAR"
    },
    {
      "bufferView": 2,
      "byteOffset": 7176,
      "componentType": 5126,
      "count": 587,
      "max": [
        17.101900100708008,
        0.9289600253105164,
        3.52455997467041
      ],
      "min": [
        -17.101900100708008,
        -1.1295499801635742,
        -5.7067999839782715
      ],
      "type": "VEC3"
    },
    {
      "bufferView": 2,
      "byteOffset": 14220,
      "componentType": 5126,
      "count": 587,
      "max": [
        0.9999982118606567,
        0.9991773962974548,
        0.8846091628074646
      ],
      "min": [
        -0.9999982118606567,
        -0.9952202439308167,
        -1.0
      ],
      "type": "VEC3"
    },
    {
      "bufferView": 1,
      "byteOffset": 2392,
      "componentType": 5126,
      "count": 587,
      "max": [
        0.9057700037956238,
        0.9906799793243408
      ],
      "min": [
        0.06449999660253525,
        0.6420899629592896
      ],
      "type": "VEC2"
    },
    {
      "bufferView": 0,
      "byteOffset": 2988,
      "componentType": 5125,
      "count": 1320,
      "type": "SCALAR"
    },
    {
      "bufferView": 2,
      "byteOffset": 21264,
      "componentType": 5126,
      "count": 47,
      "max": [
        16.434120178222656,
        0.9174900054931641,
        1.5884699821472168
      ],
      "min": [
        6.173419952392578,
        -0.15789000689983368,
        -4.3053297996521
      ],
      "type": "VEC3"
    },
    {
      "bufferView": 2,
      "byteOffset": 21828,
      "componentType": 5126,
      "count": 47,
      "max": [
        0.9551096558570862,
        0.996761679649353,
        0.8837427496910095
      ],
      "min": [
        -0.9999913573265076,
        -0.9851256012916565,
        -0.6640865802764893
      ],
      "type": "VEC3"
    },
    {
      "bufferView": 1,
      "byteOffset": 7088,
      "componentType": 5126,
      "count": 47,
      "max": [
        0.7501199841499329,
        0.9466800093650818
      ],
      "min": [
        0.10943000018596649,
        0.4716600179672241
      ],
      "type": "VEC2"
    },
    {
      "bufferView": 0,
      "byteOffset": 8268,
      "componentType": 5125,
      "count": 114,
      "type": "SCALAR"
    },
    {
      "bufferView": 2,
      "byteOffset": 22392,
      "componentType": 5126,
      "count": 47,
      "max": [
        -6.173659801483154,
        0.9174900054931641,
        1.5884599685668945
      ],
      "min": [
        -16.434349060058594,
        -0.15789000689983368,
        -4.3053297996521
      ],
      "type": "VEC3"
    },
    {
      "bufferView": 2,
      "byteOffset": 22956,
      "componentType": 5126,
      "count": 47,
      "max": [
        0.9999909996986389,
        0.9967615604400635,
        0.8837425708770752
      ],
      "min": [
        -0.9550988078117371,
        -0.9851292967796326,
        -0.6640569567680359
      ],
      "type": "VEC3"
    },
    {
      "bufferView": 1,
      "byteOffset": 7464,
      "componentType": 5126,
      "count": 47,
      "max": [
        0.8906099796295166,
        0.9466800093650818
      ],
      "min": [
        0.24991999566555023,
        0.4716600179672241
      ],
      "type": "VEC2"
    },
    {
      "bufferView": 0,
      "byteOffset": 8724,
      "componentType": 5125,
      "count": 114,
      "type": "SCALAR"
    },
    {
      "bufferView": 2,
      "byteOffset": 23520,
      "componentType": 5126,
      "count": 656,
      "max": [
        4.135129928588867,
        -0.17744334042072296,
        11.05319595336914
      ],
      "min": [
        -4.135129928588867,
        -1.724850058555603,
        -1.8502000570297241
      ],
      "type": "VEC3"
    },
    {
      "bufferView": 2,
      "byteOffset": 31392,
      "componentType": 5126,
      "count": 656,
      "max": [
        1.0,
        0.9998958110809326,
        1.0
      ],
      "min": [
        -1.0,
        -0.9998957514762878,
        -1.0
      ],
      "type": "VEC3"
    },
    {
      "bufferView": 1,
      "byteOffset": 7840,
      "componentType": 5126,
      "count": 656,
      "max": [
        0.7046399712562561,
        0.9622300267219543
      ],
      "min": [
        0.010830000042915344,
        0.31053000688552856
      ],
      "type": "VEC2"
    },
    {
      "bufferView": 0,
      "byteOffset": 9180,
      "componentType": 5125,
      "count": 2388,
      "type": "SCALAR"
    },
    {
      "bufferView": 2,
      "byteOffset": 39264,
      "componentType": 5126,
      "count": 4148,
      "max": [
        17.13134002685547,
        9.205499649047852,
        14.131979942321777
      ],
      "min": [
        -17.13135528564453,
        -2.5393600463867188,
        -17.322599411010742
      ],
      "type": "VEC3"
    },
    {
      "bufferView": 2,
      "byteOffset": 89040,
      "componentType": 5126,
      "count": 4148,
      "max": [
        1.0,
        1.0,
        1.0
      ],
      "min": [
        -1.0,
        -1.0,
        -0.9995406866073608
      ],
      "type": "VEC3"
    },
    {
      "bufferView": 1,
      "byteOffset": 13088,
      "componentType": 5126,
      "count": 4148,
      "max": [
        0.9966999888420105,
        0.9990100264549255
      ],
      "min": [
        0.001990000018849969,
        0.002950012683868408
      ],
      "type": "VEC2"
    },
    {
      "bufferView": 0,
      "byteOffset": 18732,
      "componentType": 5125,
      "count": 11235,
      "type": "SCALAR"
    },
    {
      "bufferView": 2,
      "byteOffset": 138816,
      "componentType": 5126,
      "count": 308,
      "max": [
        0.6079800128936768,
        2.9249699115753174,
        9.649649620056152
      ],
      "min": [
        -1.1258000135421753,
        -1.9436299800872803,
        -15.147549629211426
      ],
      "type": "VEC3"
    },
    {
      "bufferView": 2,
      "byteOffset": 142512,
      "componentType": 5126,
      "count": 308,
      "max": [
        1.0,
        1.0,
        0.9165818095207214
      ],
      "min": [
        -1.0,
        -0.406716525554657,
        -0.7284417748451233
      ],
      "type": "VEC3"
    },
    {
      "bufferView": 1,
      "byteOffset": 46272,
      "componentType": 5126,
      "count": 308,
      "max": [
        0.8374199867248535,
        0.9971299767494202
      ],
      "min": [
        0.2701700031757355,
        0.6285099983215332
      ],
      "type": "VEC2"
    },
    {
      "bufferView": 0,
      "byteOffset": 63672,
      "componentType": 5125,
      "count": 816,
      "type": "SCALAR"
    }
  ],
  "asset": {
    "extras": {
      "author": "OUTPISTON (https://sketchfab.com/outpiston)",
      "license": "CC-BY-NC-SA-4.0 (http://creativecommons.org/licenses/by-nc-sa/4.0/)",
      "source": "https://sketchfab.com/3d-models/airbus-a318-122-43cd2ce76c214dd6b465117426554dd6",
      "title": "Airbus A318-122"
    },
    "generator": "Sketchfab-16.72.0",
    "version": "2.0"
  },
  "bufferViews": [
    {
      "buffer": 0,
      "byteLength": 66936,
      "name": "floatBufferViews",
      "target": 34963
    },
    {
      "buffer": 0,
      "byteLength": 48736,
      "byteOffset": 66936,
      "byteStride": 8,
      "name": "floatBufferViews",
      "target": 34962
    },
    {
      "buffer": 0,
      "byteLength": 146208,
      "byteOffset": 115672,
      "byteStride": 12,
      "name": "floatBufferViews",
      "target": 34962
    }
  ],
  "buffers": [
    {
      "byteLength": 261880,
      "uri": "scene.bin"
    }
  ],
  "images": [
    {
      "uri": "textures/material01_baseColor.jpeg"
    }
  ],
  "materials": [
    {
      "name": "material01",
      "pbrMetallicRoughness": {
        "baseColorFactor": [
          0.588,
          0.588,
          0.588,
          1.0
        ],
        "baseColorTexture": {
          "index": 0
        }
      }
    },
    {
      "name": "material00",
      "pbrMetallicRoughness": {
        "baseColorFactor": [
          0.588,
          0.588,
          0.588,
          1.0
        ],
        "baseColorTexture": {
          "index": 0
        }
      }
    },
    {
      "name": "material04",
      "pbrMetallicRoughness": {
        "baseColorFactor": [
          0.588,
          0.588,
          0.588,
          1.0
        ]
      }
    },
    {
      "name": "material02",
      "pbrMetallicRoughness": {
        "baseColorFactor": [
          0.588,
          0.588,
          0.588,
          1.0
        ],
        "baseColorTexture": {
          "index": 0
        }
      }
    },
    {
      "emissiveFactor": [
        1.0,
        1.0,
        1.0
      ],
      "name": "material03",
      "pbrMetallicRoughness": {
        "baseColorFactor": [
          0.588,
          0.588,
          0.588,
          1.0
        ],
        "baseColorTexture": {
          "index": 0
        }
      }
    }
  ],
  "meshes": [
    {
      "name": "Object_0",
      "primitives": [
        {
          "attributes": {
            "NORMAL": 1,
            "POSITION": 0,
            "TEXCOORD_0": 2
          },
          "indices": 3,
          "material": 0,
          "mode": 4
        }
      ]
    },
    {
      "name": "Object_1",
      "primitives": [
        {
          "attributes": {
            "NORMAL": 5,
            "POSITION": 4,
            "TEXCOORD_0": 6
          },
          "indices": 7,
          "material": 1,
          "mode": 4
        }
      ]
    },
    {
      "name": "Object_2",
      "primitives": [
        {
          "attributes": {
            "NORMAL": 9,
            "POSITION": 8,
            "TEXCOORD_0": 10
          },
          "indices": 11,
          "material": 2,
          "mode": 4
        }
      ]
    },
    {
      "name": "Object_3",
      "primitives": [
        {
          "attributes": {
            "NORMAL": 13,
            "POSITION": 12,
            "TEXCOORD_0": 14
          },
          "indices": 15,
          "material": 1,
          "mode": 4
        }
      ]
    },
    {
      "name": "Object_4",
      "primitives": [
        {
          "attributes": {
            "NORMAL": 17,
            "POSITION": 16,
            "TEXCOORD_0": 18
          },
          "indices": 19,
          "material": 3,
          "mode": 4
        }
      ]
    },
    {
      "name": "Object_5",
      "primitives": [
        {
          "attributes": {
            "NORMAL": 21,
            "POSITION": 20,
            "TEXCOORD_0": 22
          },
          "indices": 23,
          "material": 2,
          "mode": 4
        }
      ]
    },
    {
      "name": "Object_6",
      "primitives": [
        {
          "attributes": {
            "NORMAL": 25,
            "POSITION": 24,
            "TEXCOORD_0": 26
          },
          "indices": 27,
          "material": 1,
          "mode": 4
        }
      ]
    },
    {
      "name": "Object_7",
      "primitives": [
        {
          "attributes": {
            "NORMAL": 29,
            "POSITION": 28,
            "TEXCOORD_0": 30
          },
          "indices": 31,
          "material": 3,
          "mode": 4
        }
      ]
    },
    {
      "name": "Object_8",
      "primitives": [
        {
          "attributes": {
            "NORMAL": 33,
            "POSITION": 32,
            "TEXCOORD_0": 34
          },
          "indices": 35,
          "material": 3,
          "mode": 4
        }
      ]
    },
    {
      "name": "Object_9",
      "primitives": [
        {
          "attributes": {
            "NORMAL": 37,
            "POSITION": 36,
            "TEXCOORD_0": 38
          },
          "indices": 39,
          "material": 3,
          "mode": 4
        }
      ]
    },
    {
      "name": "Object_10",
      "primitives": [
        {
          "attributes": {
            "NORMAL": 41,
            "POSITION": 40,
            "TEXCOORD_0": 42
          },
          "indices": 43,
          "material": 4,
          "mode": 4
        }
      ]
    },
    {
      "name": "Object_11",
      "primitives": [
        {
          "attributes": {
            "NORMAL": 45,
            "POSITION": 44,
            "TEXCOORD_0": 46
          },
          "indices": 47,
          "material": 3,
          "mode": 4
        }
      ]
    },
    {
      "name": "Object_12",
      "primitives": [
        {
          "attributes": {
            "NORMAL": 49,
            "POSITION": 48,
            "TEXCOORD_0": 50
          },
          "indices": 51,
          "material": 0,
          "mode": 4
        }
      ]
    }
  ],
  "nodes": [
    {
      "children": [
        1
      ],
      "matrix": [
        1.0,
        0.0,
        0.0,
        0.0,
        0.0,
        2.220446049250313e-16,
        -1.0,
        0.0,
        0.0,
        1.0,
        2.220446049250313e-16,
        0.0,
        0.0,
        0.0,
        0.0,
        1.0
      ],
      "name": "Sketchfab_model"
    },
    {
      "children": [
        2
      ],
      "name": "root"
    },
    {
      "children": [
        3
      ],
      "matrix": [
        1.0,
        0.0,
        0.0,
        0.0,
        0.0,
        2.220446049250313e-16,
        1.0,
        0.0,
        0.0,
        -1.0,
        2.220446049250313e-16,
        0.0,
        0.0,
        0.0,
        0.0,
        1.0
      ],
      "name": "GLTF_SceneRootNode"
    },
    {
      "children": [
        4,
        6,
        8,
        10,
        12,
        14,
        16,
        18,
        20,
        22,
        24,
        26,
        28
      ],
      "name": "node_0_71"
    },
    {
      "children": [
        5
      ],
      "name": "custom_vis_FUEL_TANK_CENTER2_CAPACITY_03_mcx_VC_8"
    },
    {
      "mesh": 0,
      "name": "Object_5"
    },
    {
      "children": [
        7
      ],
      "name": "custom_vis_FUEL_TANK_CENTER3_CAPACITY_02_mcx_VC_9"
    },
    {
      "mesh": 1,
      "name": "Object_7"
    },
    {
      "children": [
        9
      ],
      "name": "custom_vis_LIGHT_LANDING_01_mcx_VC_0_10"
    },
    {
      "mesh": 2,
      "name": "Object_9"
    },
    {
      "children": [
        11
      ],
      "name": "custom_vis_LIGHT_LANDING_01_mcx_VC_1_11"
    },
    {
      "mesh": 3,
      "name": "Object_11"
    },
    {
      "children": [
        13
      ],
      "name": "custom_vis_LIGHT_LANDING_01_mcx_VC_2_12"
    },
    {
      "mesh": 4,
      "name": "Object_13"
    },
    {
      "children": [
        15
      ],
      "name": "custom_vis_LIGHT_TAXI_00_mcx_VC_0_13"
    },
    {
      "mesh": 5,
      "name": "Object_15"
    },
    {
      "children": [
        17
      ],
      "name": "custom_vis_LIGHT_TAXI_00_mcx_VC_1_14"
    },
    {
      "mesh": 6,
      "name": "Object_17"
    },
    {
      "children": [
        19
      ],
      "name": "node_28_15"
    },
    {
      "mesh": 7,
      "name": "Object_19"
    },
    {
      "children": [
        21
      ],
      "name": "node_29_16"
    },
    {
      "mesh": 8,
      "name": "Object_21"
    },
    {
      "children": [
        23
      ],
      "name": "node_30_17"
    },
    {
      "mesh": 9,
      "name": "Object_23"
    },
    {
      "children": [
        25
      ],
      "name": "node_31_18"
    },
    {
      "mesh": 10,
      "name": "Object_25"
    },
    {
      "children": [
        27
      ],
      "name": "node_32_19"
    },
    {
      "mesh": 11,
      "name": "Object_27"
    },
    {
      "children": [
        29
      ],
      "name": "node_33_20"
    },
    {
      "mesh": 12,
      "name": "Object_29"
    }
  ],
  "samplers": [
    {
      "magFilter": 9729,
      "minFilter": 9987,
      "wrapS": 10497,
      "wrapT": 10497
    }
  ],
  "scene": 0,
  "scenes": [
    {
      "name": "Sketchfab_Scene",
      "nodes": [
        0
      ]
    }
  ],
  "textures": [
    {
      "sampler": 0,
      "source": 0
    }
  ]
}
